<mxfile host="app.diagrams.net" agent="Mozilla/5.0 (Windows NT 10.0; Win64; x64; rv:144.0) Gecko/20100101 Firefox/144.0" version="28.2.8">
  <diagram name="Seite-1" id="ierb-st2vSi_OBopGc5a">
    <mxGraphModel dx="844" dy="913" grid="1" gridSize="10" guides="1" tooltips="1" connect="1" arrows="1" fold="1" page="1" pageScale="1" pageWidth="827" pageHeight="1169" math="0" shadow="0">
      <root>
        <mxCell id="0" />
        <mxCell id="1" parent="0" />
        <mxCell id="9n5qKvfVnSzDqP-GJ_5M-2" value="Loop" style="shape=umlFrame;whiteSpace=wrap;html=1;pointerEvents=0;" parent="1" vertex="1">
          <mxGeometry x="60" y="260" width="1000" height="1170" as="geometry" />
        </mxCell>
        <mxCell id="9n5qKvfVnSzDqP-GJ_5M-3" value="Benutzer" style="shape=umlActor;verticalLabelPosition=bottom;verticalAlign=top;html=1;" parent="1" vertex="1">
          <mxGeometry x="110" y="130" width="30" height="60" as="geometry" />
        </mxCell>
        <mxCell id="9n5qKvfVnSzDqP-GJ_5M-4" value="" style="html=1;points=[[0,0,0,0,5],[0,1,0,0,-5],[1,0,0,0,5],[1,1,0,0,-5]];perimeter=orthogonalPerimeter;outlineConnect=0;targetShapes=umlLifeline;portConstraint=eastwest;newEdgeStyle={&quot;curved&quot;:0,&quot;rounded&quot;:0};" parent="1" vertex="1">
          <mxGeometry x="120" y="310" width="10" height="1150" as="geometry" />
        </mxCell>
        <mxCell id="9n5qKvfVnSzDqP-GJ_5M-10" value="" style="endArrow=none;dashed=1;html=1;rounded=0;exitX=1;exitY=0;exitDx=0;exitDy=5;exitPerimeter=0;" parent="1" source="9n5qKvfVnSzDqP-GJ_5M-4" target="9n5qKvfVnSzDqP-GJ_5M-3" edge="1">
          <mxGeometry width="50" height="50" relative="1" as="geometry">
            <mxPoint x="140" y="310" as="sourcePoint" />
            <mxPoint x="190" y="260" as="targetPoint" />
          </mxGeometry>
        </mxCell>
        <mxCell id="9n5qKvfVnSzDqP-GJ_5M-12" value=":UI" style="shape=umlLifeline;perimeter=lifelinePerimeter;whiteSpace=wrap;html=1;container=1;dropTarget=0;collapsible=0;recursiveResize=0;outlineConnect=0;portConstraint=eastwest;newEdgeStyle={&quot;curved&quot;:0,&quot;rounded&quot;:0};" parent="1" vertex="1">
          <mxGeometry x="260" y="180" width="100" height="1290" as="geometry" />
        </mxCell>
        <mxCell id="9n5qKvfVnSzDqP-GJ_5M-21" value="" style="html=1;points=[[0,0,0,0,5],[0,1,0,0,-5],[1,0,0,0,5],[1,1,0,0,-5]];perimeter=orthogonalPerimeter;outlineConnect=0;targetShapes=umlLifeline;portConstraint=eastwest;newEdgeStyle={&quot;curved&quot;:0,&quot;rounded&quot;:0};" parent="9n5qKvfVnSzDqP-GJ_5M-12" vertex="1">
          <mxGeometry x="45" y="150" width="10" height="50" as="geometry" />
        </mxCell>
        <mxCell id="9n5qKvfVnSzDqP-GJ_5M-22" value="" style="html=1;points=[[0,0,0,0,5],[0,1,0,0,-5],[1,0,0,0,5],[1,1,0,0,-5]];perimeter=orthogonalPerimeter;outlineConnect=0;targetShapes=umlLifeline;portConstraint=eastwest;newEdgeStyle={&quot;curved&quot;:0,&quot;rounded&quot;:0};" parent="9n5qKvfVnSzDqP-GJ_5M-12" vertex="1">
          <mxGeometry x="45" y="240" width="10" height="50" as="geometry" />
        </mxCell>
        <mxCell id="9n5qKvfVnSzDqP-GJ_5M-23" value="" style="html=1;points=[[0,0,0,0,5],[0,1,0,0,-5],[1,0,0,0,5],[1,1,0,0,-5]];perimeter=orthogonalPerimeter;outlineConnect=0;targetShapes=umlLifeline;portConstraint=eastwest;newEdgeStyle={&quot;curved&quot;:0,&quot;rounded&quot;:0};" parent="9n5qKvfVnSzDqP-GJ_5M-12" vertex="1">
          <mxGeometry x="45" y="340" width="10" height="50" as="geometry" />
        </mxCell>
        <mxCell id="9n5qKvfVnSzDqP-GJ_5M-30" value="" style="html=1;points=[[0,0,0,0,5],[0,1,0,0,-5],[1,0,0,0,5],[1,1,0,0,-5]];perimeter=orthogonalPerimeter;outlineConnect=0;targetShapes=umlLifeline;portConstraint=eastwest;newEdgeStyle={&quot;curved&quot;:0,&quot;rounded&quot;:0};" parent="9n5qKvfVnSzDqP-GJ_5M-12" vertex="1">
          <mxGeometry x="45" y="440" width="10" height="50" as="geometry" />
        </mxCell>
        <mxCell id="9n5qKvfVnSzDqP-GJ_5M-33" value="" style="html=1;points=[[0,0,0,0,5],[0,1,0,0,-5],[1,0,0,0,5],[1,1,0,0,-5]];perimeter=orthogonalPerimeter;outlineConnect=0;targetShapes=umlLifeline;portConstraint=eastwest;newEdgeStyle={&quot;curved&quot;:0,&quot;rounded&quot;:0};" parent="9n5qKvfVnSzDqP-GJ_5M-12" vertex="1">
          <mxGeometry x="45" y="530" width="10" height="640" as="geometry" />
        </mxCell>
        <mxCell id="9n5qKvfVnSzDqP-GJ_5M-17" value="Schreibe Zutat" style="html=1;verticalAlign=bottom;startArrow=oval;endArrow=block;startSize=8;curved=0;rounded=0;entryX=0;entryY=0;entryDx=0;entryDy=5;entryPerimeter=0;" parent="1" source="9n5qKvfVnSzDqP-GJ_5M-4" target="9n5qKvfVnSzDqP-GJ_5M-21" edge="1">
          <mxGeometry relative="1" as="geometry">
            <mxPoint x="240" y="335" as="sourcePoint" />
            <mxPoint x="300" y="335" as="targetPoint" />
          </mxGeometry>
        </mxCell>
        <mxCell id="9n5qKvfVnSzDqP-GJ_5M-18" value="Anzeigen des Texts" style="html=1;verticalAlign=bottom;endArrow=open;dashed=1;endSize=8;curved=0;rounded=0;entryX=1;entryY=0.052;entryDx=0;entryDy=0;entryPerimeter=0;" parent="1" source="9n5qKvfVnSzDqP-GJ_5M-21" target="9n5qKvfVnSzDqP-GJ_5M-4" edge="1">
          <mxGeometry relative="1" as="geometry">
            <mxPoint x="300" y="380" as="sourcePoint" />
            <mxPoint x="150" y="380" as="targetPoint" />
          </mxGeometry>
        </mxCell>
        <mxCell id="9n5qKvfVnSzDqP-GJ_5M-19" value="Einheit auswählen" style="html=1;verticalAlign=bottom;startArrow=oval;startFill=1;endArrow=block;startSize=8;curved=0;rounded=0;exitX=1;exitY=0.104;exitDx=0;exitDy=0;exitPerimeter=0;" parent="1" source="9n5qKvfVnSzDqP-GJ_5M-4" edge="1">
          <mxGeometry width="60" relative="1" as="geometry">
            <mxPoint x="150" y="430" as="sourcePoint" />
            <mxPoint x="300" y="430" as="targetPoint" />
          </mxGeometry>
        </mxCell>
        <mxCell id="9n5qKvfVnSzDqP-GJ_5M-20" value="Einheit anzeigen" style="html=1;verticalAlign=bottom;endArrow=open;dashed=1;endSize=8;curved=0;rounded=0;" parent="1" target="9n5qKvfVnSzDqP-GJ_5M-4" edge="1">
          <mxGeometry relative="1" as="geometry">
            <mxPoint x="300" y="470" as="sourcePoint" />
            <mxPoint x="150" y="470" as="targetPoint" />
          </mxGeometry>
        </mxCell>
        <mxCell id="9n5qKvfVnSzDqP-GJ_5M-25" value="Menge anzeigen" style="html=1;verticalAlign=bottom;endArrow=open;dashed=1;endSize=8;curved=0;rounded=0;exitX=0;exitY=1;exitDx=0;exitDy=-5;" parent="1" source="9n5qKvfVnSzDqP-GJ_5M-23" target="9n5qKvfVnSzDqP-GJ_5M-4" edge="1">
          <mxGeometry relative="1" as="geometry">
            <mxPoint x="235" y="565" as="targetPoint" />
          </mxGeometry>
        </mxCell>
        <mxCell id="9n5qKvfVnSzDqP-GJ_5M-24" value="Menge eintragen" style="html=1;verticalAlign=bottom;endArrow=block;curved=0;rounded=0;" parent="1" source="9n5qKvfVnSzDqP-GJ_5M-4" target="9n5qKvfVnSzDqP-GJ_5M-12" edge="1">
          <mxGeometry relative="1" as="geometry">
            <mxPoint x="235" y="495" as="sourcePoint" />
            <Array as="points">
              <mxPoint x="260" y="520" />
            </Array>
          </mxGeometry>
        </mxCell>
        <mxCell id="9n5qKvfVnSzDqP-GJ_5M-26" value="opt" style="shape=umlFrame;whiteSpace=wrap;html=1;pointerEvents=0;" parent="1" vertex="1">
          <mxGeometry x="120" y="580" width="220" height="100" as="geometry" />
        </mxCell>
        <mxCell id="9n5qKvfVnSzDqP-GJ_5M-31" value="Personenanzahl auswählen" style="html=1;verticalAlign=bottom;endArrow=block;curved=0;rounded=0;entryX=0;entryY=0;entryDx=0;entryDy=5;" parent="1" source="9n5qKvfVnSzDqP-GJ_5M-4" target="9n5qKvfVnSzDqP-GJ_5M-30" edge="1">
          <mxGeometry relative="1" as="geometry">
            <mxPoint x="235" y="605" as="sourcePoint" />
          </mxGeometry>
        </mxCell>
        <mxCell id="9n5qKvfVnSzDqP-GJ_5M-32" value="Personenanzahl anzeigen" style="html=1;verticalAlign=bottom;endArrow=open;dashed=1;endSize=8;curved=0;rounded=0;exitX=0;exitY=1;exitDx=0;exitDy=-5;" parent="1" source="9n5qKvfVnSzDqP-GJ_5M-30" target="9n5qKvfVnSzDqP-GJ_5M-4" edge="1">
          <mxGeometry relative="1" as="geometry">
            <mxPoint x="235" y="675" as="targetPoint" />
          </mxGeometry>
        </mxCell>
        <mxCell id="9n5qKvfVnSzDqP-GJ_5M-34" value="Zutat hinzufügen" style="html=1;verticalAlign=bottom;startArrow=oval;endArrow=block;startSize=8;curved=0;rounded=0;entryX=0;entryY=0;entryDx=0;entryDy=5;" parent="1" source="9n5qKvfVnSzDqP-GJ_5M-4" target="9n5qKvfVnSzDqP-GJ_5M-33" edge="1">
          <mxGeometry relative="1" as="geometry">
            <mxPoint x="235" y="715" as="sourcePoint" />
          </mxGeometry>
        </mxCell>
        <mxCell id="9n5qKvfVnSzDqP-GJ_5M-35" value=":Lazy Cook Verwaltung" style="shape=umlLifeline;perimeter=lifelinePerimeter;whiteSpace=wrap;html=1;container=1;dropTarget=0;collapsible=0;recursiveResize=0;outlineConnect=0;portConstraint=eastwest;newEdgeStyle={&quot;curved&quot;:0,&quot;rounded&quot;:0};" parent="1" vertex="1">
          <mxGeometry x="470" y="180" width="100" height="1290" as="geometry" />
        </mxCell>
        <mxCell id="9n5qKvfVnSzDqP-GJ_5M-36" value="" style="html=1;points=[[0,0,0,0,5],[0,1,0,0,-5],[1,0,0,0,5],[1,1,0,0,-5]];perimeter=orthogonalPerimeter;outlineConnect=0;targetShapes=umlLifeline;portConstraint=eastwest;newEdgeStyle={&quot;curved&quot;:0,&quot;rounded&quot;:0};" parent="9n5qKvfVnSzDqP-GJ_5M-35" vertex="1">
          <mxGeometry x="45" y="550" width="10" height="580" as="geometry" />
        </mxCell>
        <mxCell id="9n5qKvfVnSzDqP-GJ_5M-37" value="Zutat, Menge,Mengenart senden" style="html=1;verticalAlign=bottom;startArrow=oval;endArrow=block;startSize=8;curved=0;rounded=0;entryX=0;entryY=0;entryDx=0;entryDy=5;" parent="1" source="9n5qKvfVnSzDqP-GJ_5M-12" target="9n5qKvfVnSzDqP-GJ_5M-36" edge="1">
          <mxGeometry relative="1" as="geometry">
            <mxPoint x="410" y="735" as="sourcePoint" />
          </mxGeometry>
        </mxCell>
        <mxCell id="9n5qKvfVnSzDqP-GJ_5M-38" value=":Datenbankverwaltung" style="shape=umlLifeline;perimeter=lifelinePerimeter;whiteSpace=wrap;html=1;container=1;dropTarget=0;collapsible=0;recursiveResize=0;outlineConnect=0;portConstraint=eastwest;newEdgeStyle={&quot;curved&quot;:0,&quot;rounded&quot;:0};" parent="1" vertex="1">
          <mxGeometry x="660" y="180" width="120" height="1300" as="geometry" />
        </mxCell>
        <mxCell id="9n5qKvfVnSzDqP-GJ_5M-40" value="" style="html=1;points=[[0,0,0,0,5],[0,1,0,0,-5],[1,0,0,0,5],[1,1,0,0,-5]];perimeter=orthogonalPerimeter;outlineConnect=0;targetShapes=umlLifeline;portConstraint=eastwest;newEdgeStyle={&quot;curved&quot;:0,&quot;rounded&quot;:0};" parent="9n5qKvfVnSzDqP-GJ_5M-38" vertex="1">
          <mxGeometry x="55" y="570" width="10" height="145" as="geometry" />
        </mxCell>
        <mxCell id="9n5qKvfVnSzDqP-GJ_5M-42" value="return Ergebnisobjekt" style="html=1;verticalAlign=bottom;endArrow=open;dashed=1;endSize=8;curved=0;rounded=0;exitX=0;exitY=1;exitDx=0;exitDy=-5;" parent="1" source="9n5qKvfVnSzDqP-GJ_5M-40" target="9n5qKvfVnSzDqP-GJ_5M-36" edge="1">
          <mxGeometry relative="1" as="geometry">
            <mxPoint x="650" y="885" as="targetPoint" />
          </mxGeometry>
        </mxCell>
        <mxCell id="9n5qKvfVnSzDqP-GJ_5M-41" value="isZutat(name, Mengenart)" style="html=1;verticalAlign=bottom;endArrow=block;curved=0;rounded=0;entryX=0;entryY=0;entryDx=0;entryDy=5;" parent="1" edge="1">
          <mxGeometry relative="1" as="geometry">
            <mxPoint x="530" y="750" as="sourcePoint" />
            <mxPoint x="715" y="750" as="targetPoint" />
          </mxGeometry>
        </mxCell>
        <mxCell id="9n5qKvfVnSzDqP-GJ_5M-43" value="alt" style="shape=umlFrame;whiteSpace=wrap;html=1;pointerEvents=0;" parent="1" vertex="1">
          <mxGeometry x="190" y="920" width="490" height="390" as="geometry" />
        </mxCell>
        <mxCell id="9n5qKvfVnSzDqP-GJ_5M-44" value="[Ergbnisobjekt ist null]" style="text;html=1;whiteSpace=wrap;strokeColor=none;fillColor=none;align=center;verticalAlign=middle;rounded=0;" parent="1" vertex="1">
          <mxGeometry x="200" y="960" width="100" height="30" as="geometry" />
        </mxCell>
        <mxCell id="9n5qKvfVnSzDqP-GJ_5M-45" value="Zutat nicht gefunden" style="html=1;verticalAlign=bottom;endArrow=open;dashed=1;endSize=8;curved=0;rounded=0;" parent="1" target="9n5qKvfVnSzDqP-GJ_5M-12" edge="1">
          <mxGeometry relative="1" as="geometry">
            <mxPoint x="510" y="1020" as="sourcePoint" />
            <mxPoint x="430" y="1020" as="targetPoint" />
          </mxGeometry>
        </mxCell>
        <mxCell id="9n5qKvfVnSzDqP-GJ_5M-46" value="" style="line;strokeWidth=1;fillColor=none;align=left;verticalAlign=middle;spacingTop=-1;spacingLeft=3;spacingRight=3;rotatable=0;labelPosition=right;points=[];portConstraint=eastwest;strokeColor=inherit;" parent="1" vertex="1">
          <mxGeometry x="190" y="1050" width="490" height="54" as="geometry" />
        </mxCell>
        <mxCell id="9n5qKvfVnSzDqP-GJ_5M-47" value="Display: Error Zutat nicht gefunden" style="html=1;verticalAlign=bottom;endArrow=open;dashed=1;endSize=8;curved=0;rounded=0;" parent="1" target="9n5qKvfVnSzDqP-GJ_5M-4" edge="1">
          <mxGeometry relative="1" as="geometry">
            <mxPoint x="310" y="1040" as="sourcePoint" />
            <mxPoint x="230" y="1040" as="targetPoint" />
          </mxGeometry>
        </mxCell>
        <mxCell id="9n5qKvfVnSzDqP-GJ_5M-48" value="[Mengenart != Mengenart des Datenbankobjekts]" style="text;html=1;whiteSpace=wrap;strokeColor=none;fillColor=none;align=center;verticalAlign=middle;rounded=0;" parent="1" vertex="1">
          <mxGeometry x="200" y="1090" width="100" height="30" as="geometry" />
        </mxCell>
        <mxCell id="9n5qKvfVnSzDqP-GJ_5M-50" value="Mengenart invalide" style="html=1;verticalAlign=bottom;endArrow=open;dashed=1;endSize=8;curved=0;rounded=0;" parent="1" target="9n5qKvfVnSzDqP-GJ_5M-33" edge="1">
          <mxGeometry relative="1" as="geometry">
            <mxPoint x="510" y="1160" as="sourcePoint" />
            <mxPoint x="430" y="1160" as="targetPoint" />
          </mxGeometry>
        </mxCell>
        <mxCell id="9n5qKvfVnSzDqP-GJ_5M-51" value="Display: Invalide Mengenangabe" style="html=1;verticalAlign=bottom;endArrow=open;dashed=1;endSize=8;curved=0;rounded=0;" parent="1" target="9n5qKvfVnSzDqP-GJ_5M-4" edge="1">
          <mxGeometry relative="1" as="geometry">
            <mxPoint x="300" y="1180" as="sourcePoint" />
            <mxPoint x="230" y="1180" as="targetPoint" />
          </mxGeometry>
        </mxCell>
        <mxCell id="9n5qKvfVnSzDqP-GJ_5M-52" value="" style="line;strokeWidth=1;fillColor=none;align=left;verticalAlign=middle;spacingTop=-1;spacingLeft=3;spacingRight=3;rotatable=0;labelPosition=right;points=[];portConstraint=eastwest;strokeColor=inherit;" parent="1" vertex="1">
          <mxGeometry x="190" y="1200" width="490" height="8" as="geometry" />
        </mxCell>
        <mxCell id="9n5qKvfVnSzDqP-GJ_5M-53" value="[else]" style="text;html=1;whiteSpace=wrap;strokeColor=none;fillColor=none;align=center;verticalAlign=middle;rounded=0;" parent="1" vertex="1">
          <mxGeometry x="190" y="1210" width="100" height="30" as="geometry" />
        </mxCell>
        <mxCell id="9n5qKvfVnSzDqP-GJ_5M-54" value="Zutat Objekt" style="html=1;verticalAlign=bottom;endArrow=open;dashed=1;endSize=8;curved=0;rounded=0;" parent="1" target="9n5qKvfVnSzDqP-GJ_5M-12" edge="1">
          <mxGeometry relative="1" as="geometry">
            <mxPoint x="520" y="1270" as="sourcePoint" />
            <mxPoint x="440" y="1270" as="targetPoint" />
          </mxGeometry>
        </mxCell>
        <mxCell id="9n5qKvfVnSzDqP-GJ_5M-55" value="Display: Neue Zeile in Zuatenanzeige&amp;nbsp;" style="html=1;verticalAlign=bottom;endArrow=open;dashed=1;endSize=8;curved=0;rounded=0;" parent="1" target="9n5qKvfVnSzDqP-GJ_5M-4" edge="1">
          <mxGeometry relative="1" as="geometry">
            <mxPoint x="300" y="1290" as="sourcePoint" />
            <mxPoint x="220" y="1290" as="targetPoint" />
          </mxGeometry>
        </mxCell>
        <mxCell id="9n5qKvfVnSzDqP-GJ_5M-56" value="Clear: Texfeld, Mengeneingabe&amp;nbsp;" style="html=1;verticalAlign=bottom;endArrow=open;dashed=1;endSize=8;curved=0;rounded=0;" parent="1" source="9n5qKvfVnSzDqP-GJ_5M-12" edge="1">
          <mxGeometry relative="1" as="geometry">
            <mxPoint x="260" y="1340" as="sourcePoint" />
            <mxPoint x="130" y="1340" as="targetPoint" />
          </mxGeometry>
        </mxCell>
        <mxCell id="_yp71eb5LJWWwbY9Cvef-2" value="&amp;lt;&amp;lt;Create&amp;gt;&amp;gt;" style="endArrow=block;dashed=1;endFill=0;endSize=12;html=1;rounded=0;" edge="1" parent="1" source="9n5qKvfVnSzDqP-GJ_5M-36">
          <mxGeometry width="160" relative="1" as="geometry">
            <mxPoint x="710.5" y="1220" as="sourcePoint" />
            <mxPoint x="900" y="1220" as="targetPoint" />
          </mxGeometry>
        </mxCell>
        <mxCell id="_yp71eb5LJWWwbY9Cvef-3" value=":Zutat" style="shape=umlLifeline;perimeter=lifelinePerimeter;whiteSpace=wrap;html=1;container=1;dropTarget=0;collapsible=0;recursiveResize=0;outlineConnect=0;portConstraint=eastwest;newEdgeStyle={&quot;curved&quot;:0,&quot;rounded&quot;:0};" vertex="1" parent="1">
          <mxGeometry x="900" y="1200" width="100" height="280" as="geometry" />
        </mxCell>
        <mxCell id="_yp71eb5LJWWwbY9Cvef-5" value="zutaten.add(Zutat)" style="html=1;align=left;spacingLeft=2;endArrow=block;rounded=0;edgeStyle=orthogonalEdgeStyle;curved=0;rounded=0;" edge="1" target="9n5qKvfVnSzDqP-GJ_5M-36" parent="1">
          <mxGeometry x="0.0105" relative="1" as="geometry">
            <mxPoint x="530" y="1230" as="sourcePoint" />
            <Array as="points">
              <mxPoint x="560" y="1230" />
              <mxPoint x="560" y="1260" />
            </Array>
            <mxPoint x="535" y="1260" as="targetPoint" />
            <mxPoint as="offset" />
          </mxGeometry>
        </mxCell>
        <mxCell id="_yp71eb5LJWWwbY9Cvef-6" value=":LazyCookDB" style="shape=umlLifeline;perimeter=lifelinePerimeter;whiteSpace=wrap;html=1;container=1;dropTarget=0;collapsible=0;recursiveResize=0;outlineConnect=0;portConstraint=eastwest;newEdgeStyle={&quot;curved&quot;:0,&quot;rounded&quot;:0};" vertex="1" parent="1">
          <mxGeometry x="810" y="180" width="100" height="1300" as="geometry" />
        </mxCell>
        <mxCell id="_yp71eb5LJWWwbY9Cvef-7" value="" style="html=1;points=[[0,0,0,0,5],[0,1,0,0,-5],[1,0,0,0,5],[1,1,0,0,-5]];perimeter=orthogonalPerimeter;outlineConnect=0;targetShapes=umlLifeline;portConstraint=eastwest;newEdgeStyle={&quot;curved&quot;:0,&quot;rounded&quot;:0};" vertex="1" parent="_yp71eb5LJWWwbY9Cvef-6">
          <mxGeometry x="40" y="605" width="10" height="80" as="geometry" />
        </mxCell>
        <mxCell id="_yp71eb5LJWWwbY9Cvef-8" value="Slecet * From Zutat...&amp;nbsp;" style="html=1;verticalAlign=bottom;endArrow=block;curved=0;rounded=0;entryX=0;entryY=0;entryDx=0;entryDy=5;exitX=0.5;exitY=0.276;exitDx=0;exitDy=0;exitPerimeter=0;" edge="1" target="_yp71eb5LJWWwbY9Cvef-7" parent="1" source="9n5qKvfVnSzDqP-GJ_5M-40">
          <mxGeometry relative="1" as="geometry">
            <mxPoint x="730" y="790" as="sourcePoint" />
          </mxGeometry>
        </mxCell>
        <mxCell id="_yp71eb5LJWWwbY9Cvef-9" value="QueryResult" style="html=1;verticalAlign=bottom;endArrow=open;dashed=1;endSize=8;curved=0;rounded=0;exitX=0;exitY=1;exitDx=0;exitDy=-5;" edge="1" source="_yp71eb5LJWWwbY9Cvef-7" parent="1" target="9n5qKvfVnSzDqP-GJ_5M-38">
          <mxGeometry x="-0.0038" relative="1" as="geometry">
            <mxPoint x="780" y="860" as="targetPoint" />
            <mxPoint as="offset" />
          </mxGeometry>
        </mxCell>
      </root>
    </mxGraphModel>
  </diagram>
</mxfile>
